<svg xmlns="http://www.w3.org/2000/svg" width="34" height="24" fill="none"><rect width="34" height="24" fill="#fff" rx="4"/><rect width="33.5" height="23.5" x=".25" y=".25" stroke="#000" rx="3.75"/><path fill="#0079BE" d="M15.838 19.3h2.597c4.052 0 7.281-3.215 7.408-7.187v-.063c-.064-4.034-3.356-7.312-7.409-7.25h-2.912c-3.863.127-6.902 3.405-6.775 7.314 0 3.908 3.166 7.123 7.091 7.186Zm-5.825-7.25c0-3.278 2.723-5.988 6.015-5.988 3.293 0 6.016 2.71 6.016 5.988 0 3.278-2.723 5.99-6.016 5.99-3.292 0-6.015-2.711-6.015-5.99Zm6.965 4.035V8.079c2.216.567 3.61 2.774 3.04 4.98a4.114 4.114 0 0 1-3.04 3.026Zm-4.875-5.043a4.142 4.142 0 0 0 2.976 5.043V8.079a4.155 4.155 0 0 0-2.976 2.963Z"/></svg>