<svg xmlns="http://www.w3.org/2000/svg" width="34" height="24" fill="none"><rect width="34" height="24" fill="#fff" rx="4"/><rect width="33.5" height="23.5" x=".25" y=".25" stroke="#000" rx="3.75"/><path fill="#E21836" d="M10.518 5h5.359c.748 0 1.213.628 1.038 1.4l-2.494 11.026c-.176.77-.925 1.398-1.674 1.398H7.39c-.747 0-1.214-.628-1.04-1.398L8.848 6.401C9.02 5.628 9.77 5 10.518 5Z"/><path fill="#00447C" d="M15.43 5h6.162c.748 0 .41.628.235 1.4l-2.494 11.026c-.175.77-.12 1.397-.87 1.397H12.3c-.75 0-1.213-.628-1.037-1.398L13.758 6.4c.177-.772.924-1.4 1.672-1.4Z"/><path fill="#007B84" d="M21.348 5h5.358c.75 0 1.214.628 1.038 1.4L25.25 17.426c-.176.77-.925 1.397-1.674 1.397H18.22c-.75 0-1.214-.628-1.039-1.398L19.676 6.4c.175-.772.923-1.4 1.672-1.4Z"/><path fill="#FEFEFE" d="M11.918 8.533c-.551.006-.714 0-.766-.012l-.393 1.865c-.08.357-.138.611-.336.776a.589.589 0 0 1-.396.142c-.244 0-.386-.125-.41-.362l-.005-.082.075-.48s.39-1.61.46-1.822a.164.164 0 0 0 .005-.025c-.76.007-.894 0-.903-.012a3.093 3.093 0 0 0-.024.117l-.399 1.813-.034.154-.066.503c0 .15.028.271.085.374.182.327.7.376.992.376.378 0 .732-.083.971-.234.416-.252.524-.647.621-.998l.045-.18s.402-1.671.47-1.888c.003-.013.004-.019.008-.025Zm1.367 1.348c-.097 0-.274.025-.433.105-.058.03-.112.066-.17.1l.052-.192-.028-.033c-.338.07-.413.08-.725.125l-.026.018a9.748 9.748 0 0 1-.202 1.148c-.051.224-.104.45-.158.673l.015.028a7.51 7.51 0 0 1 .694-.013l.022-.025c.035-.186.04-.23.118-.606.037-.178.113-.57.151-.71a.507.507 0 0 1 .203-.066c.156 0 .137.14.13.195a7.182 7.182 0 0 1-.12.661l-.04.17c-.027.124-.056.245-.083.37l.011.024c.315-.017.411-.017.68-.013l.032-.025c.048-.29.062-.368.149-.79l.043-.195c.084-.38.127-.573.063-.73-.068-.176-.23-.219-.378-.219Zm1.528.399c-.167.033-.274.055-.38.069a15.94 15.94 0 0 1-.37.056l-.012.012-.012.01c-.017.124-.028.23-.05.357a6.7 6.7 0 0 1-.096.49 1.97 1.97 0 0 1-.077.278c-.02.057-.043.113-.084.273l.01.014.008.014c.151-.007.25-.013.351-.014.102-.003.207 0 .37.001l.014-.012.015-.013c.024-.144.027-.183.042-.253.014-.076.039-.18.099-.46.028-.131.06-.262.09-.396.03-.133.062-.265.093-.396l-.005-.016-.006-.014Zm.004-.537c-.152-.093-.42-.063-.599.064-.179.125-.2.303-.048.396.15.09.418.064.596-.065.178-.128.2-.304.05-.395Zm.92 2.139c.307 0 .622-.087.86-.346.182-.21.265-.523.294-.651.095-.427.021-.626-.07-.747-.141-.185-.39-.244-.646-.244-.155 0-.523.015-.81.288-.207.197-.303.465-.36.72-.059.262-.126.732.294.907.13.057.317.073.437.073Zm-.025-.96c.071-.323.155-.594.368-.594.168 0 .18.202.106.526-.014.072-.075.34-.158.453-.057.084-.126.135-.201.135-.023 0-.156 0-.158-.204-.001-.1.019-.204.043-.316Zm1.948.918.024-.025c.034-.186.04-.23.116-.606.037-.178.115-.57.152-.71.07-.034.137-.066.204-.066.155 0 .136.14.13.195a6.53 6.53 0 0 1-.122.66l-.036.17c-.028.125-.059.246-.086.37l.012.025a7.24 7.24 0 0 1 .678-.013l.033-.025c.047-.29.06-.368.149-.79l.042-.195c.085-.38.128-.573.065-.73-.07-.176-.232-.218-.379-.218a1.032 1.032 0 0 0-.602.205l.049-.193-.026-.033c-.337.07-.414.08-.726.125l-.023.018c-.038.309-.069.54-.203 1.148-.051.224-.104.45-.157.673l.014.028a7.52 7.52 0 0 1 .692-.013Zm2.32.013c.02-.1.138-.691.14-.691 0 0 .1-.434.106-.45 0 0 .032-.045.063-.063h.047c.438 0 .934 0 1.322-.294.264-.201.445-.5.525-.861.021-.089.037-.194.037-.3a.644.644 0 0 0-.105-.383c-.198-.285-.593-.29-1.048-.292l-.224.002c-.583.007-.816.005-.912-.007l-.024.121-.209.998-.522 2.216c.508-.006.717-.006.805.004Zm.387-1.769.221-.99.007-.05.004-.04.088.01.468.041c.181.072.255.258.204.5a.724.724 0 0 1-.366.497c-.148.076-.328.082-.514.082h-.12l.008-.05Zm1.382.857c-.059.257-.126.727.292.895a.794.794 0 0 0 .373.069.61.61 0 0 0 .357-.168l-.03.117.02.025c.3-.013.393-.013.719-.01l.03-.023c.047-.288.092-.568.215-1.118.06-.264.12-.525.182-.787l-.01-.03c-.335.065-.425.079-.749.126l-.024.02-.01.079a.466.466 0 0 0-.236-.2c-.143-.058-.481.017-.772.289-.204.194-.302.46-.357.716Zm.706.015c.072-.317.155-.585.369-.585.135 0 .206.129.192.348a12.25 12.25 0 0 1-.039.178c-.021.094-.044.187-.067.28a.69.69 0 0 1-.08.165.366.366 0 0 1-.26.13c-.022 0-.154 0-.159-.2-.001-.1.019-.203.044-.316Zm3.687-1.047-.026-.03c-.333.07-.393.08-.699.123l-.022.023-.004.015v-.006c-.228.54-.221.424-.407.85 0-.02 0-.032-.002-.053l-.046-.922-.03-.03c-.348.07-.356.08-.678.123l-.025.023c-.003.01-.003.023-.005.036l.002.005c.04.211.03.164.07.498.02.164.044.329.063.49.032.272.05.405.089.819-.218.369-.27.508-.479.832l.002.004-.147.24c-.017.025-.032.042-.054.05a.216.216 0 0 1-.096.013h-.082l-.121.416.416.007a.51.51 0 0 0 .48-.277l.262-.461H24.6l.028-.033c.176-.39 1.515-2.755 1.515-2.755Zm-4.393 5.456h-.177l.654-2.225h.217l.068-.229.007.255c-.008.157.112.297.429.274h.366l.125-.428h-.137c-.08 0-.116-.021-.111-.065l-.007-.26h-.678v.002c-.219.005-.873.021-1.005.058-.16.042-.33.167-.33.167l.067-.23h-.633l-.133.456-.662 2.26h-.128l-.126.425h1.262l-.043.142h.622l.042-.142h.174l.137-.46Zm-.518-1.773c-.102.03-.29.117-.29.117l.168-.569h.503l-.121.415s-.156.009-.26.037Zm.01.813s-.159.02-.263.044c-.102.032-.294.133-.294.133l.173-.592h.506l-.122.415Zm-.282.966h-.506l.147-.5h.503l-.144.5Zm1.216-1.38h.728l-.105.348h-.737l-.111.381h.645l-.488.709a.203.203 0 0 1-.1.085.283.283 0 0 1-.13.039h-.18l-.123.417h.469a.565.565 0 0 0 .493-.263l.335-.473.072.48c.015.09.078.142.12.163.047.024.096.066.164.072.074.003.127.005.162.005h.23l.138-.467h-.09c-.053 0-.142-.009-.158-.026-.015-.02-.015-.052-.023-.1l-.073-.48h-.299l.131-.16h.736l.113-.382h-.681l.106-.349h.68l.126-.43h-2.026l-.124.43Zm-6.149 1.477.17-.582h.699l.127-.433h-.699l.107-.358h.683l.127-.42h-1.71l-.123.42h.388l-.104.358h-.39l-.128.44h.388l-.226.77c-.031.102.014.14.042.188.03.046.059.077.125.094a.733.733 0 0 0 .18.025h.787l.14-.48-.349.05c-.067 0-.254-.008-.234-.072Zm.08-2.786-.177.33a.381.381 0 0 1-.102.137c-.027.017-.08.024-.158.024h-.093l-.123.421h.306a.68.68 0 0 0 .315-.083c.058-.032.074-.014.119-.058l.103-.093h.958l.127-.438h-.701l.122-.24h-.696Zm1.414 2.794c-.016-.024-.005-.067.02-.155l.262-.892h.931c.136-.002.234-.004.298-.008a.596.596 0 0 0 .224-.078.424.424 0 0 0 .162-.155c.04-.057.105-.182.161-.375l.33-1.128-.967.006s-.298.045-.429.095c-.132.055-.32.21-.32.21l.087-.309h-.597l-.836 2.853c-.03.11-.05.191-.054.24-.001.052.064.103.106.142.05.039.124.032.195.039.075.006.18.01.327.01h.459l.14-.49-.41.04a.107.107 0 0 1-.089-.045Zm.451-1.65h.978l-.062.201c-.009.005-.03-.01-.13.002h-.846l.06-.203Zm.196-.672h.986l-.07.241s-.466-.004-.54.01c-.328.058-.519.238-.519.238l.143-.49Zm.742 1.545a.108.108 0 0 1-.04.062c-.019.013-.051.018-.099.018h-.14l.009-.245h-.58l-.023 1.195c-.001.086.007.136.068.176.062.05.25.056.504.056h.363l.131-.447-.316.018-.105.006c-.014-.006-.028-.012-.043-.028-.014-.013-.036-.005-.032-.091l.002-.306.332-.014c.179 0 .255-.06.32-.118.063-.054.083-.117.107-.202l.055-.271h-.455l-.058.19Z"/></svg>