<svg xmlns="http://www.w3.org/2000/svg" width="34" height="24" fill="none"><rect width="34" height="24" fill="#fff" rx="4"/><rect width="33.5" height="23.5" x=".25" y=".25" stroke="#000" rx="3.75"/><path fill="#172B85" d="M10.75 15.858H8.69L7.146 9.792c-.074-.279-.23-.525-.458-.642A6.573 6.573 0 0 0 4.8 8.508v-.233h3.318c.458 0 .801.35.859.758l.8 4.376 2.06-5.134h2.002l-3.089 7.583Zm4.234 0h-1.945l1.602-7.583h1.945l-1.602 7.583Zm4.118-5.482c.058-.409.401-.642.802-.642a3.535 3.535 0 0 1 1.888.35l.343-1.633a4.801 4.801 0 0 0-1.773-.351c-1.888 0-3.262 1.05-3.262 2.508 0 1.11.973 1.692 1.66 2.042.743.35 1.03.584.972.934 0 .524-.572.758-1.144.758a4.789 4.789 0 0 1-2.002-.467l-.344 1.633c.687.292 1.43.409 2.117.409 2.117.058 3.433-.992 3.433-2.567 0-1.983-2.69-2.1-2.69-2.974Zm9.498 5.482-1.545-7.583h-1.659a.863.863 0 0 0-.801.583l-2.86 7h2.002l.4-1.108h2.46l.23 1.108H28.6Zm-2.918-5.54.572 2.857h-1.602l1.03-2.858Z"/></svg>