<svg xmlns="http://www.w3.org/2000/svg" width="34" height="24" fill="none"><rect width="34" height="24" fill="#fff" rx="4"/><rect width="33.5" height="23.5" x=".25" y=".25" stroke="#000" rx="3.75"/><path fill="#ED0006" d="M17.179 16.83a6.802 6.802 0 0 1-4.398 1.6c-3.745 0-6.781-3-6.781-6.7s3.036-6.7 6.78-6.7c1.679 0 3.215.602 4.399 1.6a6.802 6.802 0 0 1 4.398-1.6c3.745 0 6.781 3 6.781 6.7s-3.036 6.7-6.78 6.7a6.802 6.802 0 0 1-4.399-1.6Z"/><path fill="#F9A000" d="M17.18 16.83a6.653 6.653 0 0 0 2.382-5.1c0-2.042-.925-3.87-2.383-5.1a6.802 6.802 0 0 1 4.399-1.6c3.744 0 6.78 3 6.78 6.7s-3.036 6.7-6.78 6.7a6.802 6.802 0 0 1-4.399-1.6Z"/><path fill="#FF5E00" d="M17.179 16.83a6.653 6.653 0 0 0 2.382-5.1c0-2.042-.924-3.87-2.382-5.1a6.653 6.653 0 0 0-2.383 5.1c0 2.042.925 3.87 2.383 5.1Z"/></svg>