<svg xmlns="http://www.w3.org/2000/svg" width="34" height="24" fill="none"><rect width="34" height="24" fill="#fff" rx="4"/><rect width="33.5" height="23.5" x=".25" y=".25" stroke="#000" rx="3.75"/><path fill="#ED0006" d="M19.258 11.706c0 3.703-2.968 6.706-6.63 6.706-3.66 0-6.628-3.003-6.628-6.706C6 8.002 8.968 5 12.629 5c3.66 0 6.629 3.002 6.629 6.706Z"/><path fill="#0099DF" d="M27.857 11.706c0 3.703-2.968 6.706-6.629 6.706-3.66 0-6.629-3.003-6.629-6.706C14.6 8.002 17.568 5 21.23 5c3.66 0 6.628 3.002 6.628 6.706Z"/><path fill="#6C6BBD" d="M16.929 6.602a6.723 6.723 0 0 1 2.329 5.104 6.723 6.723 0 0 1-2.33 5.104 6.723 6.723 0 0 1-2.328-5.104c0-2.044.903-3.874 2.329-5.104Z"/></svg>